<?xml version="1.0" encoding="UTF-8"?>
<svg id="Capa_2" data-name="Capa 2" xmlns="http://www.w3.org/2000/svg" version="1.1" viewBox="0 0 283.46 425.2">
  <defs>
    <style>
      .cls-1 {
        fill: #1d1d1b;
        stroke-width: 0px;
      }

      .cls-2 {
        fill: none;
        stroke: #1d1d1b;
        stroke-miterlimit: 10;
        stroke-width: 7.84px;
      }
    </style>
  </defs>
  <g>
    <path class="cls-1" d="M110.57,167.84c-13.72,6.4-25.26,18.02-30.57,32.29-3.95,10.39-4.46,21.89-2.13,32.73,0,0-1.5,1.46-1.5,1.46,0,0-26.33,25.77-26.33,25.77,0,0-3.86,3.78-3.86,3.78,0,0-2.4-4.83-2.4-4.83-10.97-22.11-12.57-48.76-3.46-71.79,6.86-17.58,19.56-32.69,35.31-43.01,26.65-16.86,60.35-23.23,90.99-15.02,40.03,10.74,72.53,39.89,80.6,81.51,4.35,22.61,1.69,46.42-7.1,67.66-13.51,32.74-43.43,55.17-77.59,62.79-11.22,2.54-22.79,3.46-34.26,2.7-.01,0-18.44-1.07-18.46-1.07,0,0,17.1-7.07,17.1-7.07,33.88-14.32,44.69-43.72,40.03-78.56-1.78-19.57-8.54-38.48-19.4-54.89,0,0,6.54-4.33,6.54-4.33,9.6,14.46,16.45,30.9,19.46,48.05,2.77,17.14,4.26,35.06-.92,52.02-6.02,20.77-22.61,37.48-42.45,45.52.01,0-1.37-8.17-1.33-8.14,21.34,1.5,43.01-3.54,61.73-13.82,23.47-12.75,40.71-35.69,46.98-61.6,5.94-23.86,4.57-50.03-6.79-72.08-16.26-32.09-52.44-52.48-87.9-54.16-29.28-.89-61.34,10.29-80.77,32.8-14.02,15.88-21.31,37.38-19.58,58.52.81,10.53,3.65,20.99,8.3,30.45,0,0-6.26-1.06-6.26-1.06,0,0,26.33-25.77,26.33-25.77,0,0-1.11,3.53-1.11,3.53-2.54-13.38-.89-27.59,5.02-39.89,6.7-13.98,18.51-25.08,32.49-31.64,0,0,3.28,7.13,3.28,7.13h0Z"/>
    <line class="cls-2" x1="88.2" y1="118.2" x2="108.07" y2="134.07"/>
    <path class="cls-2" d="M73.89,207.12c18.33,5.64,33.41,5.69,42.68,5,12.84-.96,22.96-1.69,31.73-9.46,11.71-10.37,12.58-25.36,12.75-28.3,1.54-26.63-23-43.6-24.65-44.71-5.83-5.07-15.19-13.26-26.69-23.53-18.5-16.51-24.45-22.25-27.38-20.58-1.72.98-4.17,5.5,5.32,32.78-1.16-.42-19.84-7.03-22.69-2.24-2.23,3.73,5.95,13.08,9.37,16.99,4.19,4.79,8.29,8.09,11.05,10.11"/>
  </g>
  <circle class="cls-1" cx="108.07" cy="164.84" r="7.65"/>
</svg>